<mxfile host="Electron" agent="Mozilla/5.0 (Windows NT 10.0; Win64; x64) AppleWebKit/537.36 (KHTML, like Gecko) draw.io/25.0.2 Chrome/128.0.6613.186 Electron/32.2.5 Safari/537.36" version="25.0.2">
  <diagram id="GAXyunjEeymEw11rQF8H" name="Страница — 2">
    <mxGraphModel dx="-774" dy="1701" grid="1" gridSize="10" guides="1" tooltips="1" connect="1" arrows="1" fold="1" page="1" pageScale="1" pageWidth="827" pageHeight="1169" math="0" shadow="0">
      <root>
        <mxCell id="0" />
        <mxCell id="1" parent="0" />
        <mxCell id="KzJwpIqx6YdJWmPhTOMu-1" value="Институт" style="swimlane;fontStyle=0;childLayout=stackLayout;horizontal=1;startSize=30;horizontalStack=0;resizeParent=1;resizeParentMax=0;resizeLast=0;collapsible=1;marginBottom=0;whiteSpace=wrap;html=1;fontSize=12;fontFamily=Helvetica;" parent="1" vertex="1">
          <mxGeometry x="2620" y="-48" width="140" height="90" as="geometry" />
        </mxCell>
        <mxCell id="KzJwpIqx6YdJWmPhTOMu-2" value="Номер &lt;b&gt;PK&amp;nbsp;&lt;/b&gt;" style="text;strokeColor=none;fillColor=none;align=left;verticalAlign=middle;spacingLeft=4;spacingRight=4;overflow=hidden;points=[[0,0.5],[1,0.5]];portConstraint=eastwest;rotatable=0;whiteSpace=wrap;html=1;fontSize=12;fontFamily=Helvetica;" parent="KzJwpIqx6YdJWmPhTOMu-1" vertex="1">
          <mxGeometry y="30" width="140" height="30" as="geometry" />
        </mxCell>
        <mxCell id="KzJwpIqx6YdJWmPhTOMu-3" value="Название" style="text;strokeColor=none;fillColor=none;align=left;verticalAlign=middle;spacingLeft=4;spacingRight=4;overflow=hidden;points=[[0,0.5],[1,0.5]];portConstraint=eastwest;rotatable=0;whiteSpace=wrap;html=1;fontSize=12;fontFamily=Helvetica;" parent="KzJwpIqx6YdJWmPhTOMu-1" vertex="1">
          <mxGeometry y="60" width="140" height="30" as="geometry" />
        </mxCell>
        <mxCell id="KzJwpIqx6YdJWmPhTOMu-4" value="Студент" style="swimlane;fontStyle=0;childLayout=stackLayout;horizontal=1;startSize=30;horizontalStack=0;resizeParent=1;resizeParentMax=0;resizeLast=0;collapsible=1;marginBottom=0;whiteSpace=wrap;html=1;fontSize=12;fontFamily=Helvetica;" parent="1" vertex="1">
          <mxGeometry x="2620" y="205" width="160" height="210" as="geometry">
            <mxRectangle x="1530" y="700" width="90" height="30" as="alternateBounds" />
          </mxGeometry>
        </mxCell>
        <mxCell id="KzJwpIqx6YdJWmPhTOMu-5" value="Номер зачётки &lt;b&gt;PK&lt;/b&gt;&amp;nbsp;" style="text;strokeColor=none;fillColor=none;align=left;verticalAlign=middle;spacingLeft=4;spacingRight=4;overflow=hidden;points=[[0,0.5],[1,0.5]];portConstraint=eastwest;rotatable=0;whiteSpace=wrap;html=1;fontSize=12;fontFamily=Helvetica;" parent="KzJwpIqx6YdJWmPhTOMu-4" vertex="1">
          <mxGeometry y="30" width="160" height="30" as="geometry" />
        </mxCell>
        <mxCell id="KzJwpIqx6YdJWmPhTOMu-6" value="ФИО" style="text;strokeColor=none;fillColor=none;align=left;verticalAlign=middle;spacingLeft=4;spacingRight=4;overflow=hidden;points=[[0,0.5],[1,0.5]];portConstraint=eastwest;rotatable=0;whiteSpace=wrap;html=1;fontSize=12;fontFamily=Helvetica;" parent="KzJwpIqx6YdJWmPhTOMu-4" vertex="1">
          <mxGeometry y="60" width="160" height="30" as="geometry" />
        </mxCell>
        <mxCell id="KzJwpIqx6YdJWmPhTOMu-8" value="Форма обучения" style="text;strokeColor=none;fillColor=none;align=left;verticalAlign=middle;spacingLeft=4;spacingRight=4;overflow=hidden;points=[[0,0.5],[1,0.5]];portConstraint=eastwest;rotatable=0;whiteSpace=wrap;html=1;fontSize=12;fontFamily=Helvetica;" parent="KzJwpIqx6YdJWmPhTOMu-4" vertex="1">
          <mxGeometry y="90" width="160" height="30" as="geometry" />
        </mxCell>
        <mxCell id="KzJwpIqx6YdJWmPhTOMu-9" value="&lt;span style=&quot;color: rgb(13, 13, 13); font-size: 12px; white-space-collapse: preserve; background-color: rgb(255, 255, 255);&quot;&gt;Номер группы&lt;/span&gt;" style="text;strokeColor=none;fillColor=none;align=left;verticalAlign=middle;spacingLeft=4;spacingRight=4;overflow=hidden;points=[[0,0.5],[1,0.5]];portConstraint=eastwest;rotatable=0;whiteSpace=wrap;html=1;fontSize=12;fontFamily=Helvetica;" parent="KzJwpIqx6YdJWmPhTOMu-4" vertex="1">
          <mxGeometry y="120" width="160" height="30" as="geometry" />
        </mxCell>
        <mxCell id="OPLbASUhd2U2yBrGFp5O-1" value="password" style="text;strokeColor=none;fillColor=none;align=left;verticalAlign=middle;spacingLeft=4;spacingRight=4;overflow=hidden;points=[[0,0.5],[1,0.5]];portConstraint=eastwest;rotatable=0;whiteSpace=wrap;html=1;fontSize=12;fontFamily=Helvetica;" vertex="1" parent="KzJwpIqx6YdJWmPhTOMu-4">
          <mxGeometry y="150" width="160" height="30" as="geometry" />
        </mxCell>
        <mxCell id="OPLbASUhd2U2yBrGFp5O-2" value="login" style="text;strokeColor=none;fillColor=none;align=left;verticalAlign=middle;spacingLeft=4;spacingRight=4;overflow=hidden;points=[[0,0.5],[1,0.5]];portConstraint=eastwest;rotatable=0;whiteSpace=wrap;html=1;fontSize=12;fontFamily=Helvetica;" vertex="1" parent="KzJwpIqx6YdJWmPhTOMu-4">
          <mxGeometry y="180" width="160" height="30" as="geometry" />
        </mxCell>
        <mxCell id="KzJwpIqx6YdJWmPhTOMu-10" value="Предмет" style="swimlane;fontStyle=0;childLayout=stackLayout;horizontal=1;startSize=30;horizontalStack=0;resizeParent=1;resizeParentMax=0;resizeLast=0;collapsible=1;marginBottom=0;whiteSpace=wrap;html=1;fontSize=12;fontFamily=Helvetica;" parent="1" vertex="1">
          <mxGeometry x="2907" y="484" width="140" height="60" as="geometry" />
        </mxCell>
        <mxCell id="KzJwpIqx6YdJWmPhTOMu-11" value="Название &lt;b&gt;PK&lt;/b&gt;" style="text;strokeColor=none;fillColor=none;align=left;verticalAlign=middle;spacingLeft=4;spacingRight=4;overflow=hidden;points=[[0,0.5],[1,0.5]];portConstraint=eastwest;rotatable=0;whiteSpace=wrap;html=1;fontSize=12;fontFamily=Helvetica;" parent="KzJwpIqx6YdJWmPhTOMu-10" vertex="1">
          <mxGeometry y="30" width="140" height="30" as="geometry" />
        </mxCell>
        <mxCell id="KzJwpIqx6YdJWmPhTOMu-12" value="Контрольная работа" style="swimlane;fontStyle=0;childLayout=stackLayout;horizontal=1;startSize=30;horizontalStack=0;resizeParent=1;resizeParentMax=0;resizeLast=0;collapsible=1;marginBottom=0;whiteSpace=wrap;html=1;fontSize=12;fontFamily=Helvetica;" parent="1" vertex="1">
          <mxGeometry x="3197" y="235" width="173" height="120" as="geometry" />
        </mxCell>
        <mxCell id="KzJwpIqx6YdJWmPhTOMu-13" value="Название&amp;nbsp;" style="text;strokeColor=none;fillColor=none;align=left;verticalAlign=middle;spacingLeft=4;spacingRight=4;overflow=hidden;points=[[0,0.5],[1,0.5]];portConstraint=eastwest;rotatable=0;whiteSpace=wrap;html=1;fontSize=12;fontFamily=Helvetica;" parent="KzJwpIqx6YdJWmPhTOMu-12" vertex="1">
          <mxGeometry y="30" width="173" height="30" as="geometry" />
        </mxCell>
        <mxCell id="KzJwpIqx6YdJWmPhTOMu-14" value="Номер &lt;b&gt;PK&lt;/b&gt;" style="text;strokeColor=none;fillColor=none;align=left;verticalAlign=middle;spacingLeft=4;spacingRight=4;overflow=hidden;points=[[0,0.5],[1,0.5]];portConstraint=eastwest;rotatable=0;whiteSpace=wrap;html=1;fontSize=12;fontFamily=Helvetica;" parent="KzJwpIqx6YdJWmPhTOMu-12" vertex="1">
          <mxGeometry y="60" width="173" height="30" as="geometry" />
        </mxCell>
        <mxCell id="KzJwpIqx6YdJWmPhTOMu-15" value="Название предмета&lt;span style=&quot;white-space-collapse: preserve; color: rgb(13, 13, 13); background-color: rgb(255, 255, 255);&quot;&gt; &lt;b&gt;FK&lt;/b&gt;&lt;/span&gt;" style="text;strokeColor=none;fillColor=none;align=left;verticalAlign=middle;spacingLeft=4;spacingRight=4;overflow=hidden;points=[[0,0.5],[1,0.5]];portConstraint=eastwest;rotatable=0;whiteSpace=wrap;html=1;fontSize=12;fontFamily=Helvetica;" parent="KzJwpIqx6YdJWmPhTOMu-12" vertex="1">
          <mxGeometry y="90" width="173" height="30" as="geometry" />
        </mxCell>
        <mxCell id="KzJwpIqx6YdJWmPhTOMu-16" value="Лабораторная работа" style="swimlane;fontStyle=0;childLayout=stackLayout;horizontal=1;startSize=30;horizontalStack=0;resizeParent=1;resizeParentMax=0;resizeLast=0;collapsible=1;marginBottom=0;whiteSpace=wrap;html=1;fontSize=12;fontFamily=Helvetica;" parent="1" vertex="1">
          <mxGeometry x="2620" y="676" width="170" height="120" as="geometry" />
        </mxCell>
        <mxCell id="KzJwpIqx6YdJWmPhTOMu-17" value="Название&amp;nbsp;&amp;nbsp;" style="text;strokeColor=none;fillColor=none;align=left;verticalAlign=middle;spacingLeft=4;spacingRight=4;overflow=hidden;points=[[0,0.5],[1,0.5]];portConstraint=eastwest;rotatable=0;whiteSpace=wrap;html=1;fontSize=12;fontFamily=Helvetica;" parent="KzJwpIqx6YdJWmPhTOMu-16" vertex="1">
          <mxGeometry y="30" width="170" height="30" as="geometry" />
        </mxCell>
        <mxCell id="KzJwpIqx6YdJWmPhTOMu-18" value="Номер &lt;b&gt;PK&lt;/b&gt;" style="text;strokeColor=none;fillColor=none;align=left;verticalAlign=middle;spacingLeft=4;spacingRight=4;overflow=hidden;points=[[0,0.5],[1,0.5]];portConstraint=eastwest;rotatable=0;whiteSpace=wrap;html=1;fontSize=12;fontFamily=Helvetica;" parent="KzJwpIqx6YdJWmPhTOMu-16" vertex="1">
          <mxGeometry y="60" width="170" height="30" as="geometry" />
        </mxCell>
        <mxCell id="KzJwpIqx6YdJWmPhTOMu-19" value="&lt;span style=&quot;font-size: 12px;&quot;&gt;Название предмета&lt;/span&gt;&lt;span style=&quot;color: rgb(13, 13, 13); font-size: 12px; white-space-collapse: preserve; background-color: rgb(255, 255, 255);&quot;&gt; &lt;b&gt;FK&lt;/b&gt;&lt;/span&gt;" style="text;strokeColor=none;fillColor=none;align=left;verticalAlign=middle;spacingLeft=4;spacingRight=4;overflow=hidden;points=[[0,0.5],[1,0.5]];portConstraint=eastwest;rotatable=0;whiteSpace=wrap;html=1;fontSize=12;fontFamily=Helvetica;" parent="KzJwpIqx6YdJWmPhTOMu-16" vertex="1">
          <mxGeometry y="90" width="170" height="30" as="geometry" />
        </mxCell>
        <mxCell id="KzJwpIqx6YdJWmPhTOMu-20" value="Лабораторные группы&amp;nbsp;" style="swimlane;fontStyle=0;childLayout=stackLayout;horizontal=1;startSize=30;horizontalStack=0;resizeParent=1;resizeParentMax=0;resizeLast=0;collapsible=1;marginBottom=0;whiteSpace=wrap;html=1;fontSize=12;fontFamily=Helvetica;" parent="1" vertex="1">
          <mxGeometry x="2330" y="676" width="220" height="150" as="geometry" />
        </mxCell>
        <mxCell id="KzJwpIqx6YdJWmPhTOMu-21" value="Предельная дата&amp;nbsp;" style="text;strokeColor=none;fillColor=none;align=left;verticalAlign=middle;spacingLeft=4;spacingRight=4;overflow=hidden;points=[[0,0.5],[1,0.5]];portConstraint=eastwest;rotatable=0;whiteSpace=wrap;html=1;fontSize=12;fontFamily=Helvetica;" parent="KzJwpIqx6YdJWmPhTOMu-20" vertex="1">
          <mxGeometry y="30" width="220" height="30" as="geometry" />
        </mxCell>
        <mxCell id="KzJwpIqx6YdJWmPhTOMu-22" value="Номер г&lt;span style=&quot;color: rgb(13, 13, 13); font-size: 12px; white-space-collapse: preserve; background-color: rgb(255, 255, 255);&quot;&gt;руппы &lt;b&gt;FK&lt;/b&gt; &lt;/span&gt;" style="text;strokeColor=none;fillColor=none;align=left;verticalAlign=middle;spacingLeft=4;spacingRight=4;overflow=hidden;points=[[0,0.5],[1,0.5]];portConstraint=eastwest;rotatable=0;whiteSpace=wrap;html=1;fontSize=12;fontFamily=Helvetica;" parent="KzJwpIqx6YdJWmPhTOMu-20" vertex="1">
          <mxGeometry y="60" width="220" height="30" as="geometry" />
        </mxCell>
        <mxCell id="KzJwpIqx6YdJWmPhTOMu-23" value="Номер ла&lt;span style=&quot;color: rgb(13, 13, 13); font-size: 12px; white-space-collapse: preserve; background-color: rgb(255, 255, 255);&quot;&gt;бораторной работы &lt;b&gt;FK&lt;/b&gt;&lt;/span&gt;" style="text;strokeColor=none;fillColor=none;align=left;verticalAlign=middle;spacingLeft=4;spacingRight=4;overflow=hidden;points=[[0,0.5],[1,0.5]];portConstraint=eastwest;rotatable=0;whiteSpace=wrap;html=1;fontSize=12;fontFamily=Helvetica;" parent="KzJwpIqx6YdJWmPhTOMu-20" vertex="1">
          <mxGeometry y="90" width="220" height="30" as="geometry" />
        </mxCell>
        <mxCell id="KzJwpIqx6YdJWmPhTOMu-24" value="Название предмета&lt;span style=&quot;white-space-collapse: preserve; color: rgb(13, 13, 13); background-color: rgb(255, 255, 255);&quot;&gt; &lt;b&gt;FK&lt;/b&gt;&lt;/span&gt;" style="text;strokeColor=none;fillColor=none;align=left;verticalAlign=middle;spacingLeft=4;spacingRight=4;overflow=hidden;points=[[0,0.5],[1,0.5]];portConstraint=eastwest;rotatable=0;whiteSpace=wrap;html=1;fontSize=12;fontFamily=Helvetica;" parent="KzJwpIqx6YdJWmPhTOMu-20" vertex="1">
          <mxGeometry y="120" width="220" height="30" as="geometry" />
        </mxCell>
        <mxCell id="KzJwpIqx6YdJWmPhTOMu-25" value="Контрольные группы" style="swimlane;fontStyle=0;childLayout=stackLayout;horizontal=1;startSize=30;horizontalStack=0;resizeParent=1;resizeParentMax=0;resizeLast=0;collapsible=1;marginBottom=0;whiteSpace=wrap;html=1;fontSize=12;fontFamily=Helvetica;" parent="1" vertex="1">
          <mxGeometry x="3177" y="64" width="200" height="150" as="geometry" />
        </mxCell>
        <mxCell id="KzJwpIqx6YdJWmPhTOMu-26" value="Дата проведения&amp;nbsp;" style="text;strokeColor=none;fillColor=none;align=left;verticalAlign=middle;spacingLeft=4;spacingRight=4;overflow=hidden;points=[[0,0.5],[1,0.5]];portConstraint=eastwest;rotatable=0;whiteSpace=wrap;html=1;fontSize=12;fontFamily=Helvetica;" parent="KzJwpIqx6YdJWmPhTOMu-25" vertex="1">
          <mxGeometry y="30" width="200" height="30" as="geometry" />
        </mxCell>
        <mxCell id="KzJwpIqx6YdJWmPhTOMu-27" value="&lt;span style=&quot;color: rgb(13, 13, 13); font-size: 12px; white-space-collapse: preserve; background-color: rgb(255, 255, 255);&quot;&gt;Номер группы &lt;b&gt;FK&lt;/b&gt;&lt;/span&gt;" style="text;strokeColor=none;fillColor=none;align=left;verticalAlign=middle;spacingLeft=4;spacingRight=4;overflow=hidden;points=[[0,0.5],[1,0.5]];portConstraint=eastwest;rotatable=0;whiteSpace=wrap;html=1;fontSize=12;fontFamily=Helvetica;" parent="KzJwpIqx6YdJWmPhTOMu-25" vertex="1">
          <mxGeometry y="60" width="200" height="30" as="geometry" />
        </mxCell>
        <mxCell id="KzJwpIqx6YdJWmPhTOMu-28" value="Номер к&lt;span style=&quot;white-space-collapse: preserve; color: rgb(13, 13, 13); background-color: rgb(255, 255, 255);&quot;&gt;онтрольной работы &lt;b&gt;FK&lt;/b&gt;&lt;/span&gt;" style="text;strokeColor=none;fillColor=none;align=left;verticalAlign=middle;spacingLeft=4;spacingRight=4;overflow=hidden;points=[[0,0.5],[1,0.5]];portConstraint=eastwest;rotatable=0;whiteSpace=wrap;html=1;fontSize=12;fontFamily=Helvetica;" parent="KzJwpIqx6YdJWmPhTOMu-25" vertex="1">
          <mxGeometry y="90" width="200" height="30" as="geometry" />
        </mxCell>
        <mxCell id="KzJwpIqx6YdJWmPhTOMu-29" value="Название предмета&lt;span style=&quot;white-space-collapse: preserve; color: rgb(13, 13, 13); background-color: rgb(255, 255, 255);&quot;&gt; &lt;b&gt;FK&lt;/b&gt;&lt;/span&gt;" style="text;strokeColor=none;fillColor=none;align=left;verticalAlign=middle;spacingLeft=4;spacingRight=4;overflow=hidden;points=[[0,0.5],[1,0.5]];portConstraint=eastwest;rotatable=0;whiteSpace=wrap;html=1;fontSize=12;fontFamily=Helvetica;" parent="KzJwpIqx6YdJWmPhTOMu-25" vertex="1">
          <mxGeometry y="120" width="200" height="30" as="geometry" />
        </mxCell>
        <mxCell id="KzJwpIqx6YdJWmPhTOMu-30" value="Результат контрольной работы" style="swimlane;fontStyle=0;childLayout=stackLayout;horizontal=1;startSize=30;horizontalStack=0;resizeParent=1;resizeParentMax=0;resizeLast=0;collapsible=1;marginBottom=0;whiteSpace=wrap;html=1;fontSize=12;fontFamily=Helvetica;" parent="1" vertex="1">
          <mxGeometry x="2867" y="235" width="220" height="150" as="geometry" />
        </mxCell>
        <mxCell id="KzJwpIqx6YdJWmPhTOMu-31" value="Оценка&amp;nbsp;" style="text;strokeColor=none;fillColor=none;align=left;verticalAlign=middle;spacingLeft=4;spacingRight=4;overflow=hidden;points=[[0,0.5],[1,0.5]];portConstraint=eastwest;rotatable=0;whiteSpace=wrap;html=1;fontSize=12;fontFamily=Helvetica;" parent="KzJwpIqx6YdJWmPhTOMu-30" vertex="1">
          <mxGeometry y="30" width="220" height="30" as="geometry" />
        </mxCell>
        <mxCell id="KzJwpIqx6YdJWmPhTOMu-32" value="Н&lt;font color=&quot;#0d0d0d&quot;&gt;&lt;span style=&quot;white-space-collapse: preserve; background-color: rgb(255, 255, 255);&quot;&gt;омер зачетки &lt;b&gt;FK&lt;/b&gt;&lt;/span&gt;&lt;/font&gt;" style="text;strokeColor=none;fillColor=none;align=left;verticalAlign=middle;spacingLeft=4;spacingRight=4;overflow=hidden;points=[[0,0.5],[1,0.5]];portConstraint=eastwest;rotatable=0;whiteSpace=wrap;html=1;fontSize=12;fontFamily=Helvetica;" parent="KzJwpIqx6YdJWmPhTOMu-30" vertex="1">
          <mxGeometry y="60" width="220" height="30" as="geometry" />
        </mxCell>
        <mxCell id="KzJwpIqx6YdJWmPhTOMu-33" value="&lt;span style=&quot;font-size: 12px;&quot;&gt;Номер к&lt;/span&gt;&lt;span style=&quot;white-space-collapse: preserve; color: rgb(13, 13, 13); font-size: 12px; background-color: rgb(255, 255, 255);&quot;&gt;онтрольной работы &lt;/span&gt;&lt;b style=&quot;color: rgb(13, 13, 13); white-space-collapse: preserve;&quot;&gt;FK&lt;/b&gt;" style="text;strokeColor=none;fillColor=none;align=left;verticalAlign=middle;spacingLeft=4;spacingRight=4;overflow=hidden;points=[[0,0.5],[1,0.5]];portConstraint=eastwest;rotatable=0;whiteSpace=wrap;html=1;fontSize=12;fontFamily=Helvetica;" parent="KzJwpIqx6YdJWmPhTOMu-30" vertex="1">
          <mxGeometry y="90" width="220" height="30" as="geometry" />
        </mxCell>
        <mxCell id="KzJwpIqx6YdJWmPhTOMu-34" value="Название предмета&lt;span style=&quot;white-space-collapse: preserve; color: rgb(13, 13, 13); background-color: rgb(255, 255, 255);&quot;&gt; &lt;/span&gt;&lt;b style=&quot;color: rgb(13, 13, 13); white-space-collapse: preserve;&quot;&gt;FK&lt;/b&gt;" style="text;strokeColor=none;fillColor=none;align=left;verticalAlign=middle;spacingLeft=4;spacingRight=4;overflow=hidden;points=[[0,0.5],[1,0.5]];portConstraint=eastwest;rotatable=0;whiteSpace=wrap;html=1;fontSize=12;fontFamily=Helvetica;" parent="KzJwpIqx6YdJWmPhTOMu-30" vertex="1">
          <mxGeometry y="120" width="220" height="30" as="geometry" />
        </mxCell>
        <mxCell id="KzJwpIqx6YdJWmPhTOMu-35" value="Сдача лабораторной работы" style="swimlane;fontStyle=0;childLayout=stackLayout;horizontal=1;startSize=30;horizontalStack=0;resizeParent=1;resizeParentMax=0;resizeLast=0;collapsible=1;marginBottom=0;whiteSpace=wrap;html=1;fontSize=12;fontFamily=Helvetica;" parent="1" vertex="1">
          <mxGeometry x="2590" y="483" width="220" height="150" as="geometry" />
        </mxCell>
        <mxCell id="KzJwpIqx6YdJWmPhTOMu-36" value="Дата сдачи&amp;nbsp;" style="text;strokeColor=none;fillColor=none;align=left;verticalAlign=middle;spacingLeft=4;spacingRight=4;overflow=hidden;points=[[0,0.5],[1,0.5]];portConstraint=eastwest;rotatable=0;whiteSpace=wrap;html=1;fontSize=12;fontFamily=Helvetica;" parent="KzJwpIqx6YdJWmPhTOMu-35" vertex="1">
          <mxGeometry y="30" width="220" height="30" as="geometry" />
        </mxCell>
        <mxCell id="KzJwpIqx6YdJWmPhTOMu-37" value="Н&lt;font color=&quot;#0d0d0d&quot;&gt;&lt;span style=&quot;white-space-collapse: preserve; background-color: rgb(255, 255, 255);&quot;&gt;омер зачетки &lt;/span&gt;&lt;/font&gt;&lt;b style=&quot;color: rgb(13, 13, 13); white-space-collapse: preserve;&quot;&gt;FK&lt;/b&gt;" style="text;strokeColor=none;fillColor=none;align=left;verticalAlign=middle;spacingLeft=4;spacingRight=4;overflow=hidden;points=[[0,0.5],[1,0.5]];portConstraint=eastwest;rotatable=0;whiteSpace=wrap;html=1;fontSize=12;fontFamily=Helvetica;" parent="KzJwpIqx6YdJWmPhTOMu-35" vertex="1">
          <mxGeometry y="60" width="220" height="30" as="geometry" />
        </mxCell>
        <mxCell id="KzJwpIqx6YdJWmPhTOMu-38" value="Номер ла&lt;span style=&quot;white-space-collapse: preserve; color: rgb(13, 13, 13); font-size: 12px; background-color: rgb(255, 255, 255);&quot;&gt;бораторной работы &lt;/span&gt;&lt;b style=&quot;color: rgb(13, 13, 13); white-space-collapse: preserve;&quot;&gt;FK&lt;/b&gt;" style="text;strokeColor=none;fillColor=none;align=left;verticalAlign=middle;spacingLeft=4;spacingRight=4;overflow=hidden;points=[[0,0.5],[1,0.5]];portConstraint=eastwest;rotatable=0;whiteSpace=wrap;html=1;fontSize=12;fontFamily=Helvetica;" parent="KzJwpIqx6YdJWmPhTOMu-35" vertex="1">
          <mxGeometry y="90" width="220" height="30" as="geometry" />
        </mxCell>
        <mxCell id="KzJwpIqx6YdJWmPhTOMu-39" value="Название предмета&amp;nbsp;&lt;b style=&quot;color: rgb(13, 13, 13); white-space-collapse: preserve;&quot;&gt;FK&lt;/b&gt;" style="text;strokeColor=none;fillColor=none;align=left;verticalAlign=middle;spacingLeft=4;spacingRight=4;overflow=hidden;points=[[0,0.5],[1,0.5]];portConstraint=eastwest;rotatable=0;whiteSpace=wrap;html=1;fontSize=12;fontFamily=Helvetica;" parent="KzJwpIqx6YdJWmPhTOMu-35" vertex="1">
          <mxGeometry y="120" width="220" height="30" as="geometry" />
        </mxCell>
        <mxCell id="KzJwpIqx6YdJWmPhTOMu-40" style="edgeStyle=orthogonalEdgeStyle;rounded=0;orthogonalLoop=1;jettySize=auto;html=1;entryX=1;entryY=0.5;entryDx=0;entryDy=0;endArrow=none;endFill=0;startArrow=classic;startFill=1;exitX=1;exitY=0.5;exitDx=0;exitDy=0;" parent="1" source="KzJwpIqx6YdJWmPhTOMu-43" target="KzJwpIqx6YdJWmPhTOMu-9" edge="1">
          <mxGeometry relative="1" as="geometry">
            <Array as="points">
              <mxPoint x="2762" y="169" />
              <mxPoint x="2800" y="170" />
              <mxPoint x="2800" y="400" />
            </Array>
          </mxGeometry>
        </mxCell>
        <mxCell id="KzJwpIqx6YdJWmPhTOMu-41" value="Группа" style="swimlane;fontStyle=0;childLayout=stackLayout;horizontal=1;startSize=30;horizontalStack=0;resizeParent=1;resizeParentMax=0;resizeLast=0;collapsible=1;marginBottom=0;whiteSpace=wrap;html=1;fontSize=12;fontFamily=Helvetica;" parent="1" vertex="1">
          <mxGeometry x="2620" y="94" width="140" height="90" as="geometry" />
        </mxCell>
        <mxCell id="KzJwpIqx6YdJWmPhTOMu-42" value="Номер института" style="text;strokeColor=none;fillColor=none;align=left;verticalAlign=middle;spacingLeft=4;spacingRight=4;overflow=hidden;points=[[0,0.5],[1,0.5]];portConstraint=eastwest;rotatable=0;whiteSpace=wrap;html=1;fontSize=12;fontFamily=Helvetica;" parent="KzJwpIqx6YdJWmPhTOMu-41" vertex="1">
          <mxGeometry y="30" width="140" height="30" as="geometry" />
        </mxCell>
        <mxCell id="KzJwpIqx6YdJWmPhTOMu-43" value="Номер группы &lt;b&gt;PK&lt;/b&gt;" style="text;strokeColor=none;fillColor=none;align=left;verticalAlign=middle;spacingLeft=4;spacingRight=4;overflow=hidden;points=[[0,0.5],[1,0.5]];portConstraint=eastwest;rotatable=0;whiteSpace=wrap;html=1;fontSize=12;fontFamily=Helvetica;" parent="KzJwpIqx6YdJWmPhTOMu-41" vertex="1">
          <mxGeometry y="60" width="140" height="30" as="geometry" />
        </mxCell>
        <mxCell id="KzJwpIqx6YdJWmPhTOMu-45" style="edgeStyle=orthogonalEdgeStyle;rounded=0;orthogonalLoop=1;jettySize=auto;html=1;entryX=1;entryY=0.5;entryDx=0;entryDy=0;endArrow=none;endFill=0;exitX=1;exitY=0.5;exitDx=0;exitDy=0;startArrow=classic;startFill=1;" parent="1" source="KzJwpIqx6YdJWmPhTOMu-2" target="KzJwpIqx6YdJWmPhTOMu-42" edge="1">
          <mxGeometry relative="1" as="geometry" />
        </mxCell>
        <mxCell id="KzJwpIqx6YdJWmPhTOMu-46" style="edgeStyle=orthogonalEdgeStyle;rounded=0;orthogonalLoop=1;jettySize=auto;html=1;entryX=1;entryY=0.5;entryDx=0;entryDy=0;endArrow=none;endFill=0;startArrow=classic;startFill=1;" parent="1" source="KzJwpIqx6YdJWmPhTOMu-11" target="KzJwpIqx6YdJWmPhTOMu-19" edge="1">
          <mxGeometry relative="1" as="geometry">
            <Array as="points">
              <mxPoint x="2880" y="529" />
              <mxPoint x="2880" y="781" />
            </Array>
          </mxGeometry>
        </mxCell>
        <mxCell id="KzJwpIqx6YdJWmPhTOMu-47" style="edgeStyle=orthogonalEdgeStyle;rounded=0;orthogonalLoop=1;jettySize=auto;html=1;endArrow=none;endFill=0;startArrow=classic;startFill=1;" parent="1" source="KzJwpIqx6YdJWmPhTOMu-11" target="KzJwpIqx6YdJWmPhTOMu-15" edge="1">
          <mxGeometry relative="1" as="geometry">
            <Array as="points">
              <mxPoint x="3157" y="529" />
              <mxPoint x="3157" y="350" />
            </Array>
          </mxGeometry>
        </mxCell>
        <mxCell id="KzJwpIqx6YdJWmPhTOMu-48" style="edgeStyle=orthogonalEdgeStyle;rounded=0;orthogonalLoop=1;jettySize=auto;html=1;entryX=1;entryY=0.5;entryDx=0;entryDy=0;endArrow=classic;endFill=1;startArrow=none;startFill=0;exitX=1;exitY=0.5;exitDx=0;exitDy=0;" parent="1" source="KzJwpIqx6YdJWmPhTOMu-38" target="KzJwpIqx6YdJWmPhTOMu-18" edge="1">
          <mxGeometry relative="1" as="geometry" />
        </mxCell>
        <mxCell id="KzJwpIqx6YdJWmPhTOMu-49" style="edgeStyle=orthogonalEdgeStyle;rounded=0;orthogonalLoop=1;jettySize=auto;html=1;entryX=0;entryY=0.5;entryDx=0;entryDy=0;startArrow=none;startFill=0;endArrow=classic;endFill=1;" parent="1" source="KzJwpIqx6YdJWmPhTOMu-33" target="KzJwpIqx6YdJWmPhTOMu-14" edge="1">
          <mxGeometry relative="1" as="geometry">
            <Array as="points">
              <mxPoint x="3127" y="340" />
              <mxPoint x="3127" y="310" />
            </Array>
          </mxGeometry>
        </mxCell>
        <mxCell id="KzJwpIqx6YdJWmPhTOMu-50" style="edgeStyle=orthogonalEdgeStyle;rounded=0;orthogonalLoop=1;jettySize=auto;html=1;entryX=0;entryY=0.5;entryDx=0;entryDy=0;startArrow=none;startFill=0;endArrow=classic;endFill=1;" parent="1" source="KzJwpIqx6YdJWmPhTOMu-23" target="KzJwpIqx6YdJWmPhTOMu-18" edge="1">
          <mxGeometry relative="1" as="geometry" />
        </mxCell>
        <mxCell id="KzJwpIqx6YdJWmPhTOMu-51" style="edgeStyle=orthogonalEdgeStyle;rounded=0;orthogonalLoop=1;jettySize=auto;html=1;entryX=1;entryY=0.5;entryDx=0;entryDy=0;startArrow=none;startFill=0;endArrow=classic;endFill=1;" parent="1" source="KzJwpIqx6YdJWmPhTOMu-28" target="KzJwpIqx6YdJWmPhTOMu-14" edge="1">
          <mxGeometry relative="1" as="geometry">
            <Array as="points">
              <mxPoint x="3157" y="169" />
              <mxPoint x="3157" y="220" />
              <mxPoint x="3390" y="220" />
              <mxPoint x="3390" y="310" />
            </Array>
          </mxGeometry>
        </mxCell>
        <mxCell id="KzJwpIqx6YdJWmPhTOMu-52" style="edgeStyle=orthogonalEdgeStyle;rounded=0;orthogonalLoop=1;jettySize=auto;html=1;entryX=0;entryY=0.5;entryDx=0;entryDy=0;endArrow=none;endFill=0;startArrow=classic;startFill=1;exitX=0;exitY=0.5;exitDx=0;exitDy=0;" parent="1" source="KzJwpIqx6YdJWmPhTOMu-5" target="KzJwpIqx6YdJWmPhTOMu-37" edge="1">
          <mxGeometry relative="1" as="geometry">
            <Array as="points">
              <mxPoint x="2560" y="250" />
              <mxPoint x="2560" y="558" />
            </Array>
          </mxGeometry>
        </mxCell>
        <mxCell id="KzJwpIqx6YdJWmPhTOMu-53" style="edgeStyle=orthogonalEdgeStyle;rounded=0;orthogonalLoop=1;jettySize=auto;html=1;endArrow=none;endFill=0;startArrow=classic;startFill=1;" parent="1" source="KzJwpIqx6YdJWmPhTOMu-5" target="KzJwpIqx6YdJWmPhTOMu-32" edge="1">
          <mxGeometry relative="1" as="geometry" />
        </mxCell>
        <mxCell id="KzJwpIqx6YdJWmPhTOMu-54" style="edgeStyle=orthogonalEdgeStyle;rounded=0;orthogonalLoop=1;jettySize=auto;html=1;entryX=0;entryY=0.5;entryDx=0;entryDy=0;endArrow=none;endFill=0;startArrow=classic;startFill=1;exitX=0;exitY=0.5;exitDx=0;exitDy=0;" parent="1" source="KzJwpIqx6YdJWmPhTOMu-43" target="KzJwpIqx6YdJWmPhTOMu-22" edge="1">
          <mxGeometry relative="1" as="geometry" />
        </mxCell>
        <mxCell id="KzJwpIqx6YdJWmPhTOMu-55" style="edgeStyle=orthogonalEdgeStyle;rounded=0;orthogonalLoop=1;jettySize=auto;html=1;endArrow=classic;endFill=1;startArrow=none;startFill=0;exitX=0;exitY=0.5;exitDx=0;exitDy=0;entryX=1;entryY=0.5;entryDx=0;entryDy=0;" parent="1" source="KzJwpIqx6YdJWmPhTOMu-27" target="KzJwpIqx6YdJWmPhTOMu-43" edge="1">
          <mxGeometry relative="1" as="geometry">
            <mxPoint x="2820" y="150" as="sourcePoint" />
            <mxPoint x="2880" y="110" as="targetPoint" />
          </mxGeometry>
        </mxCell>
        <mxCell id="KzJwpIqx6YdJWmPhTOMu-56" style="edgeStyle=orthogonalEdgeStyle;rounded=0;orthogonalLoop=1;jettySize=auto;html=1;entryX=1;entryY=0.5;entryDx=0;entryDy=0;startArrow=none;startFill=0;endArrow=classic;endFill=1;" parent="1" source="KzJwpIqx6YdJWmPhTOMu-29" target="KzJwpIqx6YdJWmPhTOMu-15" edge="1">
          <mxGeometry relative="1" as="geometry" />
        </mxCell>
        <mxCell id="KzJwpIqx6YdJWmPhTOMu-57" style="edgeStyle=orthogonalEdgeStyle;rounded=0;orthogonalLoop=1;jettySize=auto;html=1;exitX=0;exitY=0.5;exitDx=0;exitDy=0;entryX=1;entryY=0.5;entryDx=0;entryDy=0;endArrow=none;endFill=0;startArrow=classic;startFill=1;" parent="1" source="KzJwpIqx6YdJWmPhTOMu-15" target="KzJwpIqx6YdJWmPhTOMu-34" edge="1">
          <mxGeometry relative="1" as="geometry">
            <Array as="points">
              <mxPoint x="3142" y="340" />
              <mxPoint x="3142" y="370" />
            </Array>
          </mxGeometry>
        </mxCell>
        <mxCell id="KzJwpIqx6YdJWmPhTOMu-59" style="edgeStyle=orthogonalEdgeStyle;rounded=0;orthogonalLoop=1;jettySize=auto;html=1;entryX=0;entryY=0.5;entryDx=0;entryDy=0;" parent="1" source="KzJwpIqx6YdJWmPhTOMu-24" target="KzJwpIqx6YdJWmPhTOMu-19" edge="1">
          <mxGeometry relative="1" as="geometry">
            <Array as="points">
              <mxPoint x="2590" y="811" />
              <mxPoint x="2590" y="781" />
            </Array>
          </mxGeometry>
        </mxCell>
        <mxCell id="KzJwpIqx6YdJWmPhTOMu-60" style="edgeStyle=orthogonalEdgeStyle;rounded=0;orthogonalLoop=1;jettySize=auto;html=1;entryX=1;entryY=0.5;entryDx=0;entryDy=0;" parent="1" source="KzJwpIqx6YdJWmPhTOMu-39" target="KzJwpIqx6YdJWmPhTOMu-19" edge="1">
          <mxGeometry relative="1" as="geometry">
            <Array as="points">
              <mxPoint x="2850" y="618" />
              <mxPoint x="2850" y="781" />
            </Array>
          </mxGeometry>
        </mxCell>
        <mxCell id="x8CVflEM1m-4EhKVPgCM-1" value="Преподаватель " style="swimlane;fontStyle=0;childLayout=stackLayout;horizontal=1;startSize=30;horizontalStack=0;resizeParent=1;resizeParentMax=0;resizeLast=0;collapsible=1;marginBottom=0;whiteSpace=wrap;html=1;" parent="1" vertex="1">
          <mxGeometry x="3480" y="110" width="140" height="300" as="geometry" />
        </mxCell>
        <mxCell id="x8CVflEM1m-4EhKVPgCM-3" value="id&amp;nbsp;Преподавателя &lt;b&gt;PK&lt;/b&gt;" style="text;strokeColor=none;fillColor=none;align=left;verticalAlign=middle;spacingLeft=4;spacingRight=4;overflow=hidden;points=[[0,0.5],[1,0.5]];portConstraint=eastwest;rotatable=0;whiteSpace=wrap;html=1;" parent="x8CVflEM1m-4EhKVPgCM-1" vertex="1">
          <mxGeometry y="30" width="140" height="30" as="geometry" />
        </mxCell>
        <mxCell id="x8CVflEM1m-4EhKVPgCM-4" value="ФИО" style="text;strokeColor=none;fillColor=none;align=left;verticalAlign=middle;spacingLeft=4;spacingRight=4;overflow=hidden;points=[[0,0.5],[1,0.5]];portConstraint=eastwest;rotatable=0;whiteSpace=wrap;html=1;" parent="x8CVflEM1m-4EhKVPgCM-1" vertex="1">
          <mxGeometry y="60" width="140" height="30" as="geometry" />
        </mxCell>
        <mxCell id="x8CVflEM1m-4EhKVPgCM-5" value="Учёная степень" style="text;strokeColor=none;fillColor=none;align=left;verticalAlign=middle;spacingLeft=4;spacingRight=4;overflow=hidden;points=[[0,0.5],[1,0.5]];portConstraint=eastwest;rotatable=0;whiteSpace=wrap;html=1;" parent="x8CVflEM1m-4EhKVPgCM-1" vertex="1">
          <mxGeometry y="90" width="140" height="30" as="geometry" />
        </mxCell>
        <mxCell id="x8CVflEM1m-4EhKVPgCM-6" value="Звание" style="text;strokeColor=none;fillColor=none;align=left;verticalAlign=middle;spacingLeft=4;spacingRight=4;overflow=hidden;points=[[0,0.5],[1,0.5]];portConstraint=eastwest;rotatable=0;whiteSpace=wrap;html=1;" parent="x8CVflEM1m-4EhKVPgCM-1" vertex="1">
          <mxGeometry y="120" width="140" height="30" as="geometry" />
        </mxCell>
        <mxCell id="x8CVflEM1m-4EhKVPgCM-7" value="Должность" style="text;strokeColor=none;fillColor=none;align=left;verticalAlign=middle;spacingLeft=4;spacingRight=4;overflow=hidden;points=[[0,0.5],[1,0.5]];portConstraint=eastwest;rotatable=0;whiteSpace=wrap;html=1;" parent="x8CVflEM1m-4EhKVPgCM-1" vertex="1">
          <mxGeometry y="150" width="140" height="30" as="geometry" />
        </mxCell>
        <mxCell id="yBy2vdBtTxHUX4wZBcTo-1" value="Номер института" style="text;strokeColor=none;fillColor=none;align=left;verticalAlign=middle;spacingLeft=4;spacingRight=4;overflow=hidden;points=[[0,0.5],[1,0.5]];portConstraint=eastwest;rotatable=0;whiteSpace=wrap;html=1;" parent="x8CVflEM1m-4EhKVPgCM-1" vertex="1">
          <mxGeometry y="180" width="140" height="30" as="geometry" />
        </mxCell>
        <mxCell id="OPLbASUhd2U2yBrGFp5O-3" value="password" style="text;strokeColor=none;fillColor=none;align=left;verticalAlign=middle;spacingLeft=4;spacingRight=4;overflow=hidden;points=[[0,0.5],[1,0.5]];portConstraint=eastwest;rotatable=0;whiteSpace=wrap;html=1;" vertex="1" parent="x8CVflEM1m-4EhKVPgCM-1">
          <mxGeometry y="210" width="140" height="30" as="geometry" />
        </mxCell>
        <mxCell id="OPLbASUhd2U2yBrGFp5O-4" value="login" style="text;strokeColor=none;fillColor=none;align=left;verticalAlign=middle;spacingLeft=4;spacingRight=4;overflow=hidden;points=[[0,0.5],[1,0.5]];portConstraint=eastwest;rotatable=0;whiteSpace=wrap;html=1;" vertex="1" parent="x8CVflEM1m-4EhKVPgCM-1">
          <mxGeometry y="240" width="140" height="30" as="geometry" />
        </mxCell>
        <mxCell id="OPLbASUhd2U2yBrGFp5O-5" value="IsAdmin" style="text;strokeColor=none;fillColor=none;align=left;verticalAlign=middle;spacingLeft=4;spacingRight=4;overflow=hidden;points=[[0,0.5],[1,0.5]];portConstraint=eastwest;rotatable=0;whiteSpace=wrap;html=1;" vertex="1" parent="x8CVflEM1m-4EhKVPgCM-1">
          <mxGeometry y="270" width="140" height="30" as="geometry" />
        </mxCell>
        <mxCell id="yBy2vdBtTxHUX4wZBcTo-2" style="edgeStyle=orthogonalEdgeStyle;rounded=0;orthogonalLoop=1;jettySize=auto;html=1;entryX=0;entryY=0.5;entryDx=0;entryDy=0;endArrow=none;endFill=0;exitX=1;exitY=0.5;exitDx=0;exitDy=0;startArrow=classic;startFill=1;" parent="1" source="KzJwpIqx6YdJWmPhTOMu-2" target="yBy2vdBtTxHUX4wZBcTo-1" edge="1">
          <mxGeometry relative="1" as="geometry">
            <mxPoint x="2907" y="-48" as="sourcePoint" />
            <mxPoint x="2907" y="94" as="targetPoint" />
            <Array as="points">
              <mxPoint x="3440" y="-3" />
              <mxPoint x="3440" y="325" />
            </Array>
          </mxGeometry>
        </mxCell>
        <mxCell id="DswcHY2cxsNjh2AhH8zP-1" value="Преподаватель_предмет" style="swimlane;fontStyle=0;childLayout=stackLayout;horizontal=1;startSize=30;horizontalStack=0;resizeParent=1;resizeParentMax=0;resizeLast=0;collapsible=1;marginBottom=0;whiteSpace=wrap;html=1;" parent="1" vertex="1">
          <mxGeometry x="3300" y="409" width="140" height="90" as="geometry" />
        </mxCell>
        <mxCell id="DswcHY2cxsNjh2AhH8zP-2" value="id&amp;nbsp;Преподавателя &lt;b&gt;PK&lt;/b&gt;" style="text;strokeColor=none;fillColor=none;align=left;verticalAlign=middle;spacingLeft=4;spacingRight=4;overflow=hidden;points=[[0,0.5],[1,0.5]];portConstraint=eastwest;rotatable=0;whiteSpace=wrap;html=1;" parent="DswcHY2cxsNjh2AhH8zP-1" vertex="1">
          <mxGeometry y="30" width="140" height="30" as="geometry" />
        </mxCell>
        <mxCell id="scuUPuLqcMYGV1zcPx5J-1" value="&lt;span style=&quot;text-align: center;&quot;&gt;Название предмета&lt;/span&gt;" style="text;strokeColor=none;fillColor=none;align=left;verticalAlign=middle;spacingLeft=4;spacingRight=4;overflow=hidden;points=[[0,0.5],[1,0.5]];portConstraint=eastwest;rotatable=0;whiteSpace=wrap;html=1;" parent="DswcHY2cxsNjh2AhH8zP-1" vertex="1">
          <mxGeometry y="60" width="140" height="30" as="geometry" />
        </mxCell>
        <mxCell id="scuUPuLqcMYGV1zcPx5J-2" style="edgeStyle=orthogonalEdgeStyle;rounded=0;orthogonalLoop=1;jettySize=auto;html=1;entryX=1;entryY=0.5;entryDx=0;entryDy=0;" parent="1" source="scuUPuLqcMYGV1zcPx5J-1" target="KzJwpIqx6YdJWmPhTOMu-11" edge="1">
          <mxGeometry relative="1" as="geometry" />
        </mxCell>
        <mxCell id="ctH9RMWBcYUXXRhzWBEx-2" style="edgeStyle=orthogonalEdgeStyle;rounded=0;orthogonalLoop=1;jettySize=auto;html=1;entryX=1;entryY=0.5;entryDx=0;entryDy=0;" parent="1" source="DswcHY2cxsNjh2AhH8zP-2" target="x8CVflEM1m-4EhKVPgCM-3" edge="1">
          <mxGeometry relative="1" as="geometry" />
        </mxCell>
      </root>
    </mxGraphModel>
  </diagram>
</mxfile>
